<?xml version="1.0" standalone="no"?>
<!DOCTYPE svg PUBLIC "-//W3C//DTD SVG 20010904//EN"
 "http://www.w3.org/TR/2001/REC-SVG-20010904/DTD/svg10.dtd">
<svg version="1.0" xmlns="http://www.w3.org/2000/svg"
 width="627.000000pt" height="291.000000pt" viewBox="0 0 627.000000 291.000000"
 preserveAspectRatio="xMidYMid meet">

<g transform="translate(0.000000,291.000000) scale(0.100000,-0.100000)"
fill="#000000" stroke="none">
<path d="M2496 2873 c-14 -21 -223 -353 -466 -738 l-441 -700 -788 -5 -788 -5
271 -197 271 -198 626 0 627 0 217 345 c120 190 219 344 220 343 15 -17 215
-344 215 -351 0 -5 -32 -69 -70 -142 -90 -170 -120 -279 -120 -435 0 -179 50
-328 155 -466 179 -233 496 -360 785 -313 95 15 232 63 312 110 84 49 195 151
253 234 43 60 625 992 625 1001 0 2 -102 4 -227 4 l-228 -1 -255 -410 c-275
-443 -301 -476 -413 -530 -128 -60 -268 -59 -396 3 -190 92 -265 298 -187 513
12 33 73 140 135 239 96 151 112 182 103 200 -5 11 -108 176 -227 366 -120
190 -218 350 -218 356 0 6 111 187 246 402 136 215 247 396 247 402 0 6 -79
10 -230 10 l-230 0 -24 -37z"/>
<path d="M4019 2728 c-312 -18 -684 -138 -941 -303 -101 -66 -447 -318 -448
-327 0 -5 148 -8 329 -8 l329 0 424 311 c446 328 444 327 437 332 -2 1 -61 -1
-130 -5z"/>
<path d="M4316 921 c-152 -241 -276 -441 -276 -445 0 -3 105 -6 233 -6 l232 0
155 245 154 245 456 0 457 0 269 196 c148 108 271 198 273 200 2 2 -374 4
-836 4 l-840 0 -277 -439z"/>
<path d="M3009 1036 c-99 -35 -159 -124 -159 -234 0 -220 259 -324 415 -167
53 53 75 102 75 170 0 68 -22 117 -75 170 -71 72 -165 94 -256 61z"/>
</g>
</svg>
